REM MD5 cb2d56632eb5b29c432a72ec7b38e0fe
FILE "Interactive CD Sampler Disc Vol. 10 (USA).bin" BINARY
  TRACK 01 MODE2/2352
    INDEX 01 00:00:00
  TRACK 02 AUDIO
    INDEX 00 64:08:29
    INDEX 01 64:10:29
  TRACK 03 AUDIO
    INDEX 00 64:51:32
    INDEX 01 64:53:32
  TRACK 04 AUDIO
    INDEX 00 65:00:66
    INDEX 01 65:02:66
  TRACK 05 AUDIO
    INDEX 00 65:10:31
    INDEX 01 65:12:31
  TRACK 06 AUDIO
    INDEX 00 69:30:47
    INDEX 01 69:32:47
REM LEADOUT 69:38:43
